<svg width="811" height="313" viewBox="0 0 811 313" fill="none" xmlns="http://www.w3.org/2000/svg">
<rect width="811" height="313" fill="#E5E5E5"/>
<g id="undraw_graduation_re_gthn 1">
<g id="plant">
<path id="Path 438" d="M23.2717 268.343C26.1207 269.344 29.1795 269.595 32.1535 269.071C35.1276 268.548 37.9166 267.267 40.2519 265.352C46.1992 260.36 48.0642 252.138 49.5809 244.524L54.0686 222L44.6734 228.469C37.9165 233.121 31.0079 237.923 26.3299 244.661C21.652 251.4 19.6111 260.599 23.3686 267.891" fill="#EF5DA8"/>
<path id="Path 439" d="M24.7225 297.18C23.54 288.565 22.3233 279.838 23.1547 271.131C23.8916 263.397 26.251 255.845 31.0544 249.651C33.604 246.369 36.7065 243.558 40.2222 241.343C41.1388 240.764 41.9825 242.217 41.0699 242.793C34.9865 246.637 30.2812 252.314 27.6323 259.006C24.7068 266.446 24.237 274.557 24.741 282.462C25.0455 287.241 25.6928 291.99 26.3428 296.733C26.3941 296.947 26.3621 297.173 26.2532 297.365C26.1442 297.557 25.9665 297.7 25.756 297.766C25.5413 297.824 25.3124 297.795 25.119 297.685C24.9256 297.575 24.7833 297.393 24.723 297.179L24.7225 297.18Z" fill="#D61D1D"/>
<path id="Path 442" d="M33.2341 283.356C34.4557 285.214 36.1352 286.725 38.1107 287.745C40.0861 288.765 42.291 289.259 44.5127 289.179C50.2237 288.908 54.9829 284.924 59.2667 281.14L71.9401 269.951L63.5528 269.549C57.521 269.26 51.3335 268.989 45.5883 270.852C39.8432 272.714 34.5448 277.189 33.4945 283.135" fill="#F178B6"/>
<path id="Path 443" d="M21.3799 302.133C27.073 292.059 33.6759 280.864 45.4752 277.286C48.7558 276.294 52.1956 275.939 55.6095 276.239C56.6856 276.332 56.4168 277.991 55.3429 277.898C49.6203 277.423 43.9087 278.934 39.1696 282.177C34.7146 285.409 30.9377 289.485 28.0533 294.173C26.2123 296.976 24.5635 299.899 22.9146 302.817C22.3877 303.75 20.8469 303.076 21.3799 302.133Z" fill="#F91010"/>
</g>
<path id="min1_hand_right" d="M170.284 220.037C167.359 203.448 161.681 190.583 157.602 191.302C153.522 192.022 152.587 206.053 155.512 222.641C158.437 239.23 164.115 252.095 168.194 251.376C172.273 250.656 173.209 236.625 170.284 220.037Z" fill="#2F2E41"/>
<g id="minion1">
<path id="Vector" d="M127.795 284.691C151.581 284.691 170.863 265.409 170.863 241.623C170.863 217.838 151.581 198.556 127.795 198.556C104.01 198.556 84.7281 217.838 84.7281 241.623C84.7281 265.409 104.01 284.691 127.795 284.691Z" fill="#2F2E41"/>
<path id="Vector_2" d="M121.254 275.423H108.17V298.865H121.254V275.423Z" fill="#2F2E41"/>
<path id="Vector_3" d="M147.421 275.423H134.337V298.865H147.421V275.423Z" fill="#2F2E41"/>
<path id="Vector_4" d="M119.073 303.226C125.095 303.226 129.976 301.396 129.976 299.137C129.976 296.879 125.095 295.049 119.073 295.049C113.051 295.049 108.17 296.879 108.17 299.137C108.17 301.396 113.051 303.226 119.073 303.226Z" fill="#2F2E41"/>
<path id="Vector_5" d="M145.24 302.681C151.262 302.681 156.144 300.85 156.144 298.592C156.144 296.334 151.262 294.504 145.24 294.504C139.219 294.504 134.337 296.334 134.337 298.592C134.337 300.85 139.219 302.681 145.24 302.681Z" fill="#2F2E41"/>
<path id="Vector_6" d="M93.0817 237.403C96.012 234.475 90.8264 224.535 81.4995 215.201C72.1725 205.866 62.236 200.673 59.3057 203.601C56.3755 206.529 61.561 216.47 70.888 225.804C80.215 235.138 90.1515 240.331 93.0817 237.403Z" fill="#2F2E41"/>
<path id="Vector_7" d="M125.983 250.239C134.113 250.239 140.703 243.649 140.703 235.52C140.703 227.391 134.113 220.801 125.983 220.801C117.854 220.801 111.264 227.391 111.264 235.52C111.264 243.649 117.854 250.239 125.983 250.239Z" fill="white"/>
<path id="Vector_8" d="M125.983 240.427C128.693 240.427 130.89 238.23 130.89 235.52C130.89 232.81 128.693 230.614 125.983 230.614C123.274 230.614 121.077 232.81 121.077 235.52C121.077 238.23 123.274 240.427 125.983 240.427Z" fill="#3F3D56"/>
<path id="Vector_9" d="M137.668 262.743C138.123 265.24 137.566 267.816 136.122 269.904C134.677 271.992 132.462 273.42 129.965 273.875C127.467 274.329 124.891 273.773 122.803 272.329C120.716 270.884 119.287 268.669 118.833 266.172V266.172L118.829 266.153C117.887 260.951 121.91 259.11 127.112 258.168C132.314 257.227 136.726 257.541 137.668 262.743Z" fill="white"/>
</g>
<g id="min1_hat">
<path id="Vector_10" d="M129.11 203.263C121.458 203.255 113.85 202.093 106.545 199.816C106.037 199.652 105.594 199.332 105.28 198.901C104.965 198.471 104.795 197.951 104.793 197.418V179.888C104.793 179.225 105.057 178.59 105.526 178.121C105.994 177.652 106.63 177.389 107.293 177.388H151.293C151.955 177.389 152.591 177.652 153.06 178.121C153.528 178.59 153.792 179.225 153.793 179.888V197.408C153.793 197.946 153.62 198.469 153.3 198.902C152.979 199.334 152.529 199.651 152.014 199.807C144.59 202.076 136.873 203.24 129.11 203.263V203.263Z" fill="#6C63FF"/>
<path id="Vector_11" d="M128.816 187.779C128.516 187.78 128.219 187.726 127.938 187.621L93.8366 174.816C93.3544 174.635 92.94 174.309 92.6498 173.884C92.3597 173.458 92.2081 172.954 92.2157 172.439C92.2233 171.924 92.3898 171.424 92.6924 171.007C92.995 170.59 93.4189 170.277 93.9062 170.11L125.992 159.133C126.51 158.958 127.071 158.955 127.591 159.127L163.401 171.064C163.896 171.229 164.327 171.544 164.633 171.966C164.94 172.388 165.107 172.895 165.111 173.416C165.115 173.938 164.956 174.447 164.656 174.874C164.356 175.3 163.93 175.622 163.438 175.795L129.643 187.639C129.377 187.732 129.098 187.78 128.816 187.779V187.779Z" fill="#6C63FF"/>
<path id="Vector_12" d="M97.7928 186.888H96.7928V172.388H127.293V173.388H97.7928V186.888Z" fill="#3F3D56"/>
</g>
<path id="min2_hand_right" d="M398.799 220.2C408.126 210.865 413.312 200.925 410.381 197.997C407.451 195.069 397.515 200.262 388.188 209.596C378.861 218.93 373.675 228.871 376.605 231.799C379.536 234.727 389.472 229.534 398.799 220.2Z" fill="#2F2E41"/>
<path id="min2_hand_left" d="M313.949 260.176C321.475 249.337 324.818 238.635 321.415 236.273C318.013 233.91 309.153 240.781 301.627 251.62C294.101 262.459 290.758 273.161 294.161 275.523C297.564 277.886 306.423 271.015 313.949 260.176Z" fill="#2F2E41"/>
<g id="minion2">
<path id="Vector_13" d="M352.39 282.086C376.175 282.086 395.457 262.805 395.457 239.019C395.457 215.234 376.175 195.952 352.39 195.952C328.604 195.952 309.322 215.234 309.322 239.019C309.322 262.805 328.604 282.086 352.39 282.086Z" fill="#2F2E41"/>
<path id="Vector_14" d="M345.848 272.819H332.764V296.26H345.848V272.819Z" fill="#2F2E41"/>
<path id="Vector_15" d="M372.015 272.819H358.932V296.26H372.015V272.819Z" fill="#2F2E41"/>
<path id="Vector_16" d="M343.667 300.622C349.689 300.622 354.57 298.791 354.57 296.533C354.57 294.275 349.689 292.444 343.667 292.444C337.646 292.444 332.764 294.275 332.764 296.533C332.764 298.791 337.646 300.622 343.667 300.622Z" fill="#2F2E41"/>
<path id="Vector_17" d="M369.835 300.077C375.856 300.077 380.738 298.246 380.738 295.988C380.738 293.73 375.856 291.899 369.835 291.899C363.813 291.899 358.932 293.73 358.932 295.988C358.932 298.246 363.813 300.077 369.835 300.077Z" fill="#2F2E41"/>
<path id="Vector_18" d="M350.578 247.635C358.707 247.635 365.297 241.045 365.297 232.916C365.297 224.787 358.707 218.197 350.578 218.197C342.449 218.197 335.859 224.787 335.859 232.916C335.859 241.045 342.449 247.635 350.578 247.635Z" fill="white"/>
<path id="Vector_19" d="M355.578 232.822C358.287 232.822 360.484 230.626 360.484 227.916C360.484 225.206 358.287 223.009 355.578 223.009C352.868 223.009 350.671 225.206 350.671 227.916C350.671 230.626 352.868 232.822 355.578 232.822Z" fill="#3F3D56"/>
<path id="Vector_20" d="M368.225 260.138C369.669 265.34 364.409 270.324 356.477 271.27C348.545 272.217 340.945 268.768 339.501 263.567L339.496 263.549C338.059 258.347 344.193 256.506 352.127 255.564C360.06 254.622 366.789 254.936 368.225 260.138Z" fill="white"/>
</g>
<g id="min2_hat">
<path id="Vector_21" d="M337.321 213.672C330.218 216.52 322.726 218.279 315.099 218.892C314.567 218.929 314.036 218.798 313.584 218.515C313.131 218.233 312.779 217.815 312.579 217.321L306.039 201.057C305.792 200.441 305.8 199.753 306.06 199.144C306.32 198.534 306.811 198.052 307.426 197.804L348.249 181.39C348.864 181.143 349.552 181.151 350.162 181.411C350.772 181.671 351.253 182.162 351.501 182.776L358.037 199.032C358.238 199.531 358.273 200.081 358.137 200.601C358.001 201.122 357.701 201.585 357.282 201.921C351.24 206.796 344.515 210.755 337.321 213.672V213.672Z" fill="#6C63FF"/>
<path id="Vector_22" opacity="0.2" d="M351.037 182.963L352.13 185.681L333.154 202.311C332.799 202.62 332.346 202.794 331.876 202.804L307.506 203.366L306.503 200.87C306.306 200.378 306.313 199.828 306.521 199.34C306.729 198.853 307.121 198.467 307.612 198.268L348.436 181.853C348.928 181.657 349.478 181.664 349.965 181.872C350.453 182.079 350.838 182.472 351.037 182.963V182.963Z" fill="black"/>
<path id="Vector_23" d="M302.065 213.277C303.169 213.277 304.065 212.382 304.065 211.277C304.065 210.172 303.169 209.277 302.065 209.277C300.96 209.277 300.065 210.172 300.065 211.277C300.065 212.382 300.96 213.277 302.065 213.277Z" fill="#3F3D56"/>
<path id="Vector_24" d="M331.272 199.416C330.994 199.528 330.698 199.589 330.398 199.597L293.982 200.438C293.467 200.45 292.961 200.303 292.533 200.016C292.105 199.73 291.776 199.318 291.591 198.837C291.406 198.356 291.374 197.83 291.499 197.331C291.624 196.831 291.901 196.383 292.29 196.046L317.964 173.892C318.38 173.536 318.9 173.324 319.446 173.289L357.124 171.005C357.644 170.973 358.162 171.105 358.604 171.382C359.045 171.659 359.389 172.067 359.588 172.55C359.786 173.032 359.828 173.564 359.709 174.072C359.59 174.579 359.315 175.037 358.923 175.38L331.987 198.978C331.775 199.163 331.533 199.311 331.272 199.416V199.416Z" fill="#6C63FF"/>
<path id="Vector_25" d="M302.156 210.163L301.228 210.536L295.819 197.083L324.117 185.704L324.49 186.632L297.119 197.638L302.156 210.163Z" fill="#3F3D56"/>
</g>
<g id="min3_hat">
<path id="Vector_26" d="M532.883 143.815C526.392 139.763 520.548 134.756 515.55 128.962C515.206 128.554 514.999 128.049 514.959 127.517C514.92 126.985 515.049 126.454 515.33 126L524.595 111.119C524.946 110.556 525.506 110.156 526.151 110.006C526.797 109.856 527.476 109.968 528.039 110.318L565.391 133.574C565.953 133.925 566.353 134.484 566.503 135.13C566.653 135.776 566.541 136.454 566.192 137.017L556.931 151.89C556.647 152.347 556.224 152.7 555.724 152.898C555.223 153.095 554.673 153.126 554.153 152.987C546.652 150.989 539.485 147.898 532.883 143.815V143.815Z" fill="#6C63FF"/>
<path id="Vector_27" opacity="0.2" d="M565.767 136.753L564.218 139.24L539.593 133.744C539.134 133.639 538.726 133.377 538.44 133.003L523.598 113.666L525.02 111.383C525.301 110.934 525.749 110.614 526.265 110.494C526.781 110.374 527.324 110.463 527.774 110.742L565.126 133.998C565.575 134.28 565.895 134.727 566.015 135.243C566.135 135.76 566.046 136.302 565.767 136.753V136.753Z" fill="black"/>
<path id="Vector_28" d="M540.818 130.515C540.563 130.357 540.339 130.154 540.156 129.916L517.975 101.022C517.662 100.614 517.482 100.118 517.46 99.6039C517.439 99.0893 517.577 98.5806 517.856 98.1475C518.135 97.7143 518.54 97.3778 519.017 97.184C519.494 96.9901 520.02 96.9482 520.522 97.0642L553.561 104.705C554.094 104.83 554.571 105.124 554.922 105.544L579.012 134.605C579.345 135.006 579.544 135.502 579.581 136.022C579.618 136.542 579.492 137.061 579.22 137.505C578.948 137.95 578.543 138.299 578.063 138.502C577.583 138.706 577.052 138.754 576.543 138.64L541.594 130.833C541.319 130.772 541.057 130.664 540.818 130.515Z" fill="#6C63FF"/>
<path id="Vector_29" d="M514.953 113.362L514.104 112.833L521.768 100.524L547.66 116.645L547.131 117.493L522.088 101.901L514.953 113.362Z" fill="#3F3D56"/>
<path id="Vector_30" d="M514 115.946C515.105 115.946 516 115.05 516 113.946C516 112.841 515.105 111.946 514 111.946C512.895 111.946 512 112.841 512 113.946C512 115.05 512.895 115.946 514 115.946Z" fill="#3F3D56"/>
</g>
<path id="min3_hand_left" d="M553.808 194.581C557.809 193.509 558.284 182.307 554.869 169.561C551.454 156.815 545.441 147.352 541.44 148.424C537.439 149.496 536.964 160.698 540.379 173.444C543.794 186.189 549.806 195.653 553.808 194.581Z" fill="#2F2E41"/>
<g id="minion3">
<path id="Vector_31" d="M588.728 238.691C612.513 238.691 631.795 219.409 631.795 195.623C631.795 171.838 612.513 152.556 588.728 152.556C564.942 152.556 545.66 171.838 545.66 195.623C545.66 219.409 564.942 238.691 588.728 238.691Z" fill="#2F2E41"/>
<path id="Vector_32" d="M618.584 217.954L607.42 224.777L619.645 244.779L630.809 237.956L618.584 217.954Z" fill="#2F2E41"/>
<path id="Vector_33" d="M596.256 231.6L585.092 238.423L597.317 258.425L608.481 251.602L596.256 231.6Z" fill="#2F2E41"/>
<path id="Vector_34" d="M623.78 247.363C628.918 244.223 632.128 240.116 630.951 238.189C629.773 236.262 624.653 237.246 619.515 240.386C614.377 243.526 611.167 247.634 612.344 249.56C613.522 251.487 618.641 250.503 623.78 247.363Z" fill="#2F2E41"/>
<path id="Vector_35" d="M601.167 260.544C606.305 257.404 609.516 253.296 608.339 251.369C607.161 249.443 602.041 250.426 596.903 253.566C591.765 256.707 588.554 260.814 589.732 262.741C590.909 264.668 596.029 263.684 601.167 260.544Z" fill="#2F2E41"/>
<path id="Vector_36" d="M646.956 232.127C650.359 229.765 647.016 219.063 639.49 208.224C631.964 197.386 623.105 190.514 619.702 192.877C616.3 195.24 619.642 205.941 627.168 216.78C634.694 227.619 643.554 234.49 646.956 232.127Z" fill="#2F2E41"/>
<path id="Vector_37" d="M575.54 198.239C583.669 198.239 590.259 191.649 590.259 183.52C590.259 175.391 583.669 168.801 575.54 168.801C567.41 168.801 560.82 175.391 560.82 183.52C560.82 191.649 567.41 198.239 575.54 198.239Z" fill="white"/>
<path id="Vector_38" d="M570.54 183.427C573.249 183.427 575.446 181.23 575.446 178.52C575.446 175.81 573.249 173.614 570.54 173.614C567.83 173.614 565.633 175.81 565.633 178.52C565.633 181.23 567.83 183.427 570.54 183.427Z" fill="#3F3D56"/>
<path id="Vector_39" d="M556.585 208.073C553.794 212.646 557.513 218.833 564.892 221.891C572.27 224.95 580.514 223.722 583.305 219.149L583.315 219.133C586.099 214.557 580.692 211.133 573.311 208.079C565.93 205.025 559.369 203.497 556.585 208.073Z" fill="white"/>
</g>
</g>
<path id="road" d="M706.128 313H0.871763C0.640557 313 0.41882 312.526 0.255333 311.682C0.0918456 310.838 0 309.693 0 308.5C0 307.307 0.0918456 306.162 0.255333 305.318C0.41882 304.474 0.640557 304 0.871763 304H706.128C706.359 304 706.581 304.474 706.745 305.318C706.908 306.162 707 307.307 707 308.5C707 309.693 706.908 310.838 706.745 311.682C706.581 312.526 706.359 313 706.128 313Z" fill="#3AEDD7"/>
</svg>
